<svg width="80" height="80" viewBox="0 0 80 80" fill="none" xmlns="http://www.w3.org/2000/svg">
<mask id="mask0_2615_507" style="mask-type:alpha" maskUnits="userSpaceOnUse" x="0" y="0" width="80" height="80">
<path d="M0 8C0 3.58172 3.58172 0 8 0H80V80H0V8Z" fill="#D9D9D9"/>
</mask>
<g mask="url(#mask0_2615_507)">
<circle cx="20.002" cy="19.9999" r="52" fill="#E8EBF9" fill-opacity="0.6"/>
<path fill-rule="evenodd" clip-rule="evenodd" d="M46.771 14.7316C47.1674 14.3696 47.7745 14.3696 48.1709 14.7316L69.4399 34.1571C69.8631 34.5437 69.8929 35.2002 69.5063 35.6234C69.1198 36.0466 68.4633 36.0764 68.0401 35.6898L47.471 16.9035L26.9018 35.6898C26.4786 36.0764 25.8221 36.0466 25.4356 35.6234C25.049 35.2002 25.0788 34.5437 25.502 34.1571L46.771 14.7316Z" fill="#5E40E0"/>
<path fill-rule="evenodd" clip-rule="evenodd" d="M30.2625 36.587C30.8357 36.587 31.3003 37.0517 31.3003 37.6249V47.639C31.3003 48.2121 30.8357 48.6768 30.2625 48.6768C29.6893 48.6768 29.2246 48.2121 29.2246 47.639V37.6249C29.2246 37.0517 29.6893 36.587 30.2625 36.587Z" fill="#5E40E0"/>
<path fill-rule="evenodd" clip-rule="evenodd" d="M64.5144 36.587C65.0876 36.587 65.5523 37.0517 65.5523 37.6249V48.3896C65.5523 48.9628 65.0876 49.4275 64.5144 49.4275C63.9412 49.4275 63.4766 48.9628 63.4766 48.3896V37.6249C63.4766 37.0517 63.9412 36.587 64.5144 36.587Z" fill="#5E40E0"/>
<path fill-rule="evenodd" clip-rule="evenodd" d="M55.9629 15.0382C55.9629 14.465 56.4276 14.0004 57.0008 14.0004H63.8487C64.4219 14.0004 64.8866 14.465 64.8866 15.0382V25.5681C64.8866 26.1412 64.4219 26.6059 63.8487 26.6059C63.2755 26.6059 62.8109 26.1412 62.8109 25.5681V16.0761H58.0386V18.9244C58.0386 19.4976 57.5739 19.9622 57.0008 19.9622C56.4276 19.9622 55.9629 19.4976 55.9629 18.9244V15.0382Z" fill="#5E40E0"/>
<path fill-rule="evenodd" clip-rule="evenodd" d="M42.3418 34.5863C42.3418 34.0131 42.8065 33.5485 43.3797 33.5485H53.6337C54.2069 33.5485 54.6716 34.0131 54.6716 34.5863C54.6716 35.1595 54.2069 35.6242 53.6337 35.6242H43.3797C42.8065 35.6242 42.3418 35.1595 42.3418 34.5863Z" fill="#5E40E0"/>
<path fill-rule="evenodd" clip-rule="evenodd" d="M42.3418 31.2414C42.3418 30.6682 42.8065 30.2035 43.3797 30.2035H53.6337C54.2069 30.2035 54.6716 30.6682 54.6716 31.2414C54.6716 31.8145 54.2069 32.2792 53.6337 32.2792H43.3797C42.8065 32.2792 42.3418 31.8145 42.3418 31.2414Z" fill="#5E40E0"/>
<path fill-rule="evenodd" clip-rule="evenodd" d="M45.1236 31.2058C45.1236 30.6326 45.5882 30.168 46.1614 30.168C49.1827 30.168 51.6318 32.6171 51.6318 35.6384C51.6318 38.5348 49.3807 40.9055 46.5326 41.0964L51.3989 45.4565C51.8258 45.839 51.8618 46.4951 51.4793 46.922C51.0968 47.349 50.4406 47.3849 50.0137 47.0024L43.1402 40.8439C42.8199 40.5568 42.7098 40.1019 42.8634 39.7002C43.0171 39.2984 43.4027 39.033 43.8328 39.033H46.1614C48.0363 39.033 49.5561 37.5132 49.5561 35.6384C49.5561 33.7635 48.0363 32.2437 46.1614 32.2437C45.5882 32.2437 45.1236 31.779 45.1236 31.2058Z" fill="#5E40E0"/>
<path d="M19.9961 61.5985C22.1358 59.2342 24.1937 56.8902 26.3283 54.6178C27.4813 53.4434 28.9686 52.6534 30.5872 52.3556C34.9653 51.4023 39.3416 50.4491 43.7163 49.4959C44.547 49.2411 45.4505 49.4669 46.0638 50.0824C46.6771 50.6978 46.8996 51.6021 46.6419 52.4319C46.3842 53.2617 45.6887 53.8809 44.8346 54.0407C43.3027 54.4748 41.7247 54.868 40.1774 55.297C39.2051 55.5006 38.5009 56.3465 38.4769 57.3396C38.4755 58.2658 39.0815 59.0834 39.968 59.3516C40.2243 59.4205 40.4892 59.4515 40.7545 59.4435C45.7283 59.3414 50.7021 59.2393 55.676 59.1014C56.1558 59.0788 56.6196 58.9212 57.0139 58.6469C59.6285 56.7983 62.2073 54.9038 64.8015 53.0296C66.325 51.9126 68.365 51.8023 70 52.7488C69.8209 52.8567 69.6502 52.9779 69.4893 53.1113C65.4909 56.8341 61.5128 60.5874 57.4888 64.2795C55.8902 65.7126 53.8031 66.4783 51.6571 66.4192C47.5718 66.4192 43.5376 66.4192 39.4829 66.5315C36.1599 66.607 32.9954 67.9669 30.6536 70.3257C29.9489 70.9998 29.2595 71.6943 28.4884 72.4501C22.1358 70.3257 19.9961 66.4192 19.9961 61.5985Z" fill="#9684E6"/>
</g>
</svg>
