<?xml version="1.0" encoding="UTF-8"?>
<svg version="1.1" xmlns="http://www.w3.org/2000/svg" width="255" height="255">
<path d="M0 0 C84.15 0 168.3 0 255 0 C255 84.15 255 168.3 255 255 C170.85 255 86.7 255 0 255 C0 170.85 0 86.7 0 0 Z " fill="#FDDB00" transform="translate(0,0)"/>
<path d="M0 0 C6.38629097 3.12612731 11.57877244 6.64629168 15 13 C15.886875 13.886875 16.77375 14.77375 17.6875 15.6875 C20 18 20 18 20 20 C20.6007497 20.11319045 21.2014994 20.2263809 21.82045364 20.34300137 C25.41881186 21.42768416 27.66499231 24.27614091 30.23730469 26.89672852 C31.15989326 27.81865997 31.15989326 27.81865997 32.10112 28.75921631 C34.1318968 30.79208277 36.15184186 32.83536821 38.171875 34.87890625 C39.57797869 36.29060524 40.98474628 37.70164324 42.39215088 39.11204529 C46.09445495 42.82580321 49.78766169 46.54848218 53.47906494 50.27307129 C57.24753196 54.07222731 61.02450676 57.86290403 64.80078125 61.65429688 C72.20888676 69.0945761 79.60741212 76.54430466 87 84 C84.361196 89.55867887 80.08186587 93.446905 75.8125 97.8125 C74.55469727 99.15731445 74.55469727 99.15731445 73.27148438 100.52929688 C72.44583984 101.37169922 71.62019531 102.21410156 70.76953125 103.08203125 C70.02292236 103.85780518 69.27631348 104.6335791 68.50708008 105.43286133 C65.82121538 107.11175562 64.15975032 107.63445122 61.02592468 106.95344543 C56.08710391 104.629126 52.4703672 100.20721251 48.71875 96.33984375 C47.73786277 95.35028647 46.7557026 94.3619895 45.77233887 93.37489319 C43.19024186 90.77560494 40.62705728 88.15840166 38.06707764 85.53735352 C35.99157689 83.41844307 33.90326971 81.31242413 31.81404877 79.20705318 C21.47680857 68.78852791 11.34520491 58.3275211 2 47 C1.28417755 47.71582245 0.5683551 48.4316449 -0.16915894 49.16915894 C-18.44610596 67.44610596 -36.72305298 85.72305298 -55 104 C-55.5499614 104.58905121 -56.09992279 105.17810242 -56.66654968 105.78500366 C-58 107 -58 107 -60.36987305 107.47460938 C-64.06918493 106.80706437 -65.48085708 105.08721479 -68.08203125 102.40625 C-68.54107346 101.94013306 -69.00011566 101.47401611 -69.47306824 100.99377441 C-70.93172909 99.50719906 -72.37201865 98.00417692 -73.8125 96.5 C-74.80026841 95.48714489 -75.78918886 94.47541192 -76.77929688 93.46484375 C-79.19968483 90.98942755 -81.60389902 88.49895831 -84 86 C-82.62175583 82.9042446 -81.04096882 80.79313711 -78.64645386 78.40594482 C-77.9537439 77.71048553 -77.26103394 77.01502625 -76.54733276 76.29849243 C-75.78776276 75.54611298 -75.02819275 74.79373352 -74.24560547 74.01855469 C-73.44552063 73.2181778 -72.64543579 72.4178009 -71.82110596 71.59317017 C-69.17451263 68.94797053 -66.52090472 66.30992615 -63.8671875 63.671875 C-62.03115034 61.83956781 -60.19555414 60.00681866 -58.36038208 58.17364502 C-54.02212581 53.84224566 -49.67944496 49.51532896 -45.33458912 45.19055104 C-40.38752156 40.26584851 -35.44614083 35.3354567 -30.5052278 30.40458059 C-20.34313072 20.2633811 -10.17391755 10.12934016 0 0 Z " fill="#7424D7" transform="translate(126,74)"/>
<path d="M0 0 C0.33 0 0.66 0 1 0 C1 6.93 1 13.86 1 21 C-5.27 21 -11.54 21 -18 21 C-16.68 20.67 -15.36 20.34 -14 20 C-14 19.34 -14 18.68 -14 18 C-12.68 18 -11.36 18 -10 18 C-9.7525 17.4225 -9.505 16.845 -9.25 16.25 C-7.81700012 13.67060021 -6.21575324 11.93878408 -4 10 C-3.34 10 -2.68 10 -2 10 C-2 8.68 -2 7.36 -2 6 C-1.34 6 -0.68 6 0 6 C0 4.02 0 2.04 0 0 Z " fill="#D2D0B6" transform="translate(254,234)"/>
<path d="M0 0 C5.28 0 10.56 0 16 0 C16 0.66 16 1.32 16 2 C14.68 2 13.36 2 12 2 C12 2.66 12 3.32 12 4 C11.21625 4.28875 10.4325 4.5775 9.625 4.875 C6.90328368 5.84912254 6.90328368 5.84912254 5 8 C4.3574765 10.06874034 4.3574765 10.06874034 4 12 C3.34 12 2.68 12 2 12 C2 13.32 2 14.64 2 16 C1.34 16 0.68 16 0 16 C0 10.72 0 5.44 0 0 Z " fill="#CBD0C8" transform="translate(0,0)"/>
<path d="M0 0 C0.33 0.66 0.66 1.32 1 2 C-0.99248627 6.09566623 -3.76876127 8.84390636 -7 12 C-8.51297176 13.83272352 -10.00544839 15.67730266 -11.47265625 17.546875 C-13.27974732 19.26615346 -14.61296874 19.44351419 -17 20 C-18.03789581 21.64333504 -19.03567924 23.31243867 -20 25 C-22 26.875 -22 26.875 -24 28 C-24.99 27.67 -25.98 27.34 -27 27 C-26.34 27 -25.68 27 -25 27 C-24.77779785 26.45182617 -24.5555957 25.90365234 -24.32666016 25.33886719 C-22.59300021 22.28247 -20.26246275 20.01501048 -17.7734375 17.578125 C-17.26575836 17.07327576 -16.75807922 16.56842651 -16.23501587 16.04827881 C-14.61966158 14.44407904 -12.99747791 12.84699144 -11.375 11.25 C-10.27558302 10.16061893 -9.17661941 9.0707801 -8.078125 7.98046875 C-5.3906398 5.31498115 -2.69700979 2.65584857 0 0 Z " fill="#EDC22E" transform="translate(95,153)"/>
<path d="M0 0 C0.33 1.32 0.66 2.64 1 4 C-0.8125 6.25 -0.8125 6.25 -3 8 C-3.66 8 -4.32 8 -5 8 C-5.268125 8.598125 -5.53625 9.19625 -5.8125 9.8125 C-8.05011259 13.93441793 -11.04350351 15.62610211 -15 18 C-16.75149165 19.58245275 -16.75149165 19.58245275 -18 21 C-18.66 20.67 -19.32 20.34 -20 20 C-13.4 13.4 -6.8 6.8 0 0 Z " fill="#F0C83D" transform="translate(212,160)"/>
<path d="M0 0 C0.33 0.99 0.66 1.98 1 3 C3.01508358 3.73323796 3.01508358 3.73323796 5 4 C4.835 4.61875 4.67 5.2375 4.5 5.875 C3.92365356 7.96063386 3.92365356 7.96063386 4 10 C6.31 10 8.62 10 11 10 C9 12 9 12 6.70703125 12.4375 C2.81558105 11.80857876 1.3494156 9.83937664 -1.3125 7 C-2.19550781 6.071875 -3.07851563 5.14375 -3.98828125 4.1875 C-4.65214844 3.465625 -5.31601562 2.74375 -6 2 C-3.99967627 0.99983813 -2.16874252 0.50603992 0 0 Z " fill="#8032A6" transform="translate(59,169)"/>
<path d="M0 0 C2.64 0 5.28 0 8 0 C8 2.31 8 4.62 8 7 C5.36 7 2.72 7 0 7 C0 4.69 0 2.38 0 0 Z " fill="#030002" transform="translate(0,248)"/>
<path d="M0 0 C2.31 0 4.62 0 7 0 C7 2.64 7 5.28 7 8 C4.69 8 2.38 8 0 8 C0 5.36 0 2.72 0 0 Z " fill="#020000" transform="translate(248,0)"/>
<path d="M0 0 C2.31 0 4.62 0 7 0 C7 2.31 7 4.62 7 7 C4.69 7 2.38 7 0 7 C0 4.69 0 2.38 0 0 Z " fill="#000100" transform="translate(248,248)"/>
<path d="M0 0 C3.875 1.75 3.875 1.75 5 4 C4.401875 4.12375 3.80375 4.2475 3.1875 4.375 C0.73768652 4.95475985 0.73768652 4.95475985 -2 7 C-2.99 7 -3.98 7 -5 7 C-5.33 8.32 -5.66 9.64 -6 11 C-7.65 11.33 -9.3 11.66 -11 12 C-7.49102731 7.81576108 -3.91939465 3.80411834 0 0 Z " fill="#7E34A4" transform="translate(126,74)"/>
<path d="M0 0 C0.66 1.32 1.32 2.64 2 4 C1.236875 4.226875 0.47375 4.45375 -0.3125 4.6875 C-3.59947145 6.29276513 -4.2402606 7.86307325 -6 11 C-8 12.875 -8 12.875 -10 14 C-10.99 13.67 -11.98 13.34 -13 13 C-12.34 13 -11.68 13 -11 13 C-10.76539062 12.43796875 -10.53078125 11.8759375 -10.2890625 11.296875 C-8.69337 8.45364109 -6.71075457 6.51901873 -4.375 4.25 C-3.55773437 3.45078125 -2.74046875 2.6515625 -1.8984375 1.828125 C-0.95871094 0.92320312 -0.95871094 0.92320312 0 0 Z " fill="#E3B838" transform="translate(81,167)"/>
<path d="M0 0 C3.3 0 6.6 0 10 0 C10 1.98 10 3.96 10 6 C9.34 6 8.68 6 8 6 C8 5.34 8 4.68 8 4 C6.68 4 5.36 4 4 4 C4 3.34 4 2.68 4 2 C2.68 2 1.36 2 0 2 C0 1.34 0 0.68 0 0 Z " fill="#D0CEBA" transform="translate(238,0)"/>
<path d="M0 0 C1.26776456 3.80329367 0.3809651 5.31742641 -1 9 C-1.33 9.99 -1.66 10.98 -2 12 C-3.32 10.68 -4.64 9.36 -6 8 C-4.55746343 4.63408134 -2.66735273 2.48952921 0 0 Z " fill="#843B9A" transform="translate(48,152)"/>
<path d="M0 0 C0.66 0 1.32 0 2 0 C2 0.66 2 1.32 2 2 C2.66 2 3.32 2 4 2 C4 3.32 4 4.64 4 6 C4.99 6.33 5.98 6.66 7 7 C7 7.33 7 7.66 7 8 C4.69 8 2.38 8 0 8 C0 5.36 0 2.72 0 0 Z " fill="#D1D1B7" transform="translate(0,240)"/>
<path d="M0 0 C2.375 -0.125 2.375 -0.125 5 0 C5.66 0.66 6.32 1.32 7 2 C6.67 2.99 6.34 3.98 6 5 C5.01 4.01 4.02 3.02 3 2 C1.35 3.98 -0.3 5.96 -2 8 C-2.33 6.68 -2.66 5.36 -3 4 C-2.34 4 -1.68 4 -1 4 C-0.67 2.68 -0.34 1.36 0 0 Z " fill="#7932A3" transform="translate(124,119)"/>
<path d="M0 0 C1.65 1.32 3.3 2.64 5 4 C3.60667426 7.36720387 2.0210714 8.9859524 -1 11 C-1 9.68 -1 8.36 -1 7 C-0.34 7 0.32 7 1 7 C0.67 4.69 0.34 2.38 0 0 Z " fill="#7D329B" transform="translate(208,154)"/>
<path d="M0 0 C0.75 1.75 0.75 1.75 1 4 C-1.05226666 6.76266666 -2.41531259 7.8405398 -5.75 8.75 C-6.86375 8.87375 -6.86375 8.87375 -8 9 C-7.04270084 7.87411986 -6.08412105 6.7493285 -5.125 5.625 C-4.59132813 4.99851563 -4.05765625 4.37203125 -3.5078125 3.7265625 C-2.38567993 2.44163349 -1.20628025 1.20628025 0 0 Z " fill="#F0C33C" transform="translate(120,128)"/>
<path d="M0 0 C0.66 0 1.32 0 2 0 C2 0.66 2 1.32 2 2 C2.66 2 3.32 2 4 2 C4 3.32 4 4.64 4 6 C3.34 6 2.68 6 2 6 C2 7.32 2 8.64 2 10 C1.34 10 0.68 10 0 10 C0 6.7 0 3.4 0 0 Z " fill="#D5CEB7" transform="translate(0,6)"/>
<path d="M0 0 C3.3 0 6.6 0 10 0 C10 0.66 10 1.32 10 2 C8.68 2 7.36 2 6 2 C6 2.66 6 3.32 6 4 C4.68 4 3.36 4 2 4 C2 3.34 2 2.68 2 2 C1.34 2 0.68 2 0 2 C0 1.34 0 0.68 0 0 Z " fill="#D4CDB6" transform="translate(6,0)"/>
<path d="M0 0 C1.98 0.66 3.96 1.32 6 2 C6 2.66 6 3.32 6 4 C7.98 4 9.96 4 12 4 C12 4.33 12 4.66 12 5 C8.04 5 4.08 5 0 5 C0 3.35 0 1.7 0 0 Z " fill="#D3CFB3" transform="translate(8,250)"/>
<path d="M0 0 C0.33 0 0.66 0 1 0 C1 3.96 1 7.92 1 12 C-0.98 12 -2.96 12 -5 12 C-4.67 11.34 -4.34 10.68 -4 10 C-3.34 10 -2.68 10 -2 10 C-2 8.68 -2 7.36 -2 6 C-1.34 6 -0.68 6 0 6 C0 4.02 0 2.04 0 0 Z " fill="#D6D1A9" transform="translate(254,234)"/>
<path d="M0 0 C1.65 0 3.3 0 5 0 C5 3.96 5 7.92 5 12 C4.67 12 4.34 12 4 12 C4 10.02 4 8.04 4 6 C3.34 6 2.68 6 2 6 C1.34 4.02 0.68 2.04 0 0 Z " fill="#D2CFB4" transform="translate(250,8)"/>
<path d="M0 0 C0 3.68553144 -0.8522582 5.03759752 -3 8 C-5.5625 9.875 -5.5625 9.875 -8 11 C-8.66 10.67 -9.32 10.34 -10 10 C-6.7 6.7 -3.4 3.4 0 0 Z " fill="#8A458E" transform="translate(59,141)"/>
<path d="M0 0 C7.48291572 6.15034169 7.48291572 6.15034169 10 10 C8.35 9.67 6.7 9.34 5 9 C4.67 8.01 4.34 7.02 4 6 C3.01 5.67 2.02 5.34 1 5 C0.67 3.35 0.34 1.7 0 0 Z " fill="#833E96" transform="translate(190,136)"/>
<path d="M0 0 C0.33 0.66 0.66 1.32 1 2 C-0.54442235 5.63393495 -1.48567857 6.78822059 -5.1875 8.3125 C-6.5796875 8.6528125 -6.5796875 8.6528125 -8 9 C-7.04270084 7.87411986 -6.08412105 6.7493285 -5.125 5.625 C-4.59132813 4.99851563 -4.05765625 4.37203125 -3.5078125 3.7265625 C-2.38567993 2.44163349 -1.20628025 1.20628025 0 0 Z " fill="#E8B942" transform="translate(104,144)"/>
<path d="M0 0 C0 3 0 3 -1.375 4.4375 C-1.91125 4.953125 -2.4475 5.46875 -3 6 C-4.17574711 8.09989652 -4.17574711 8.09989652 -5 10 C-6.32 9.67 -7.64 9.34 -9 9 C-6.03 6.03 -3.06 3.06 0 0 Z " fill="#8A4491" transform="translate(69,131)"/>
<path d="M0 0 C-3.465 2.97 -3.465 2.97 -7 6 C-7 4.35 -7 2.7 -7 1 C-3.375 -1.125 -3.375 -1.125 0 0 Z " fill="#762DAE" transform="translate(112,137)"/>
<path d="M0 0 C2.64752004 2.57784846 4.94432065 4.91648098 7 8 C4.625 7.6875 4.625 7.6875 2 7 C1.34 6.01 0.68 5.02 0 4 C-0.66 3.67 -1.32 3.34 -2 3 C-1.34 2.01 -0.68 1.02 0 0 Z " fill="#EBBB5A" transform="translate(127,120)"/>
<path d="M0 0 C0.598125 0.226875 1.19625 0.45375 1.8125 0.6875 C0 2.6875 0 2.6875 -2.1875 4.6875 C-3.1775 4.6875 -4.1675 4.6875 -5.1875 4.6875 C-5.5175 5.6775 -5.8475 6.6675 -6.1875 7.6875 C-5.82037028 4.97074005 -5.46005401 3.07686287 -3.875 0.8125 C-2.1875 -0.3125 -2.1875 -0.3125 0 0 Z " fill="#F0DA29" transform="translate(10.1875,4.3125)"/>
<path d="M0 0 C0 3.16880694 -0.2058242 4.43689172 -2 7 C-4.625 7.75 -4.625 7.75 -7 8 C-6.02133662 6.85373678 -5.04205413 5.70800212 -4.0625 4.5625 C-3.51722656 3.92441406 -2.97195312 3.28632812 -2.41015625 2.62890625 C-1.63204305 1.73008851 -0.84063472 0.84063472 0 0 Z " fill="#884292" transform="translate(98,102)"/>
<path d="M0 0 C0 3.16880694 -0.2058242 4.43689172 -2 7 C-4.625 7.75 -4.625 7.75 -7 8 C-6.02133662 6.85373678 -5.04205413 5.70800212 -4.0625 4.5625 C-3.51722656 3.92441406 -2.97195312 3.28632812 -2.41015625 2.62890625 C-1.63204305 1.73008851 -0.84063472 0.84063472 0 0 Z " fill="#884291" transform="translate(114,86)"/>
<path d="M0 0 C0.66 1.32 1.32 2.64 2 4 C-0.90600261 5.25664978 -2.79604584 6 -6 6 C-4.02 4.02 -2.04 2.04 0 0 Z " fill="#DEAD4A" transform="translate(81,167)"/>
<path d="M0 0 C0.33 0.66 0.66 1.32 1 2 C0.67 2.99 0.34 3.98 0 5 C-0.66 5 -1.32 5 -2 5 C-2 5.66 -2 6.32 -2 7 C-3.32 6.67 -4.64 6.34 -6 6 C-4.02 4.02 -2.04 2.04 0 0 Z " fill="#EBBF43" transform="translate(111,137)"/>
<path d="M0 0 C0 3 0 3 -1 6 C-4.0625 7.1875 -4.0625 7.1875 -7 8 C-6.02133662 6.85373678 -5.04205413 5.70800212 -4.0625 4.5625 C-3.51722656 3.92441406 -2.97195312 3.28632812 -2.41015625 2.62890625 C-1.63204305 1.73008851 -0.84063472 0.84063472 0 0 Z " fill="#8B458F" transform="translate(90,110)"/>
<path d="M0 0 C0 3 0 3 -1 6 C-4.0625 7.1875 -4.0625 7.1875 -7 8 C-6.02133662 6.85373678 -5.04205413 5.70800212 -4.0625 4.5625 C-3.51722656 3.92441406 -2.97195312 3.28632812 -2.41015625 2.62890625 C-1.63204305 1.73008851 -0.84063472 0.84063472 0 0 Z " fill="#8B458F" transform="translate(106,94)"/>
<path d="M0 0 C1 2 1 2 0.375 4.0625 C-1 6 -1 6 -3.625 6.75 C-4.800625 6.87375 -4.800625 6.87375 -6 7 C-4.02 4.69 -2.04 2.38 0 0 Z " fill="#DFB046" transform="translate(95,153)"/>
<path d="M0 0 C0 3.10551666 -0.5393715 4.35261084 -2 7 C-3.32 6.67 -4.64 6.34 -6 6 C-4.02 4.02 -2.04 2.04 0 0 Z " fill="#884196" transform="translate(82,118)"/>
<path d="M0 0 C1 2 1 2 0.375 4.0625 C-1 6 -1 6 -3.625 6.75 C-4.800625 6.87375 -4.800625 6.87375 -6 7 C-4.02 4.69 -2.04 2.38 0 0 Z " fill="#8A4396" transform="translate(121,79)"/>
</svg>
