<svg width="80" height="80" viewBox="0 0 80 80" fill="none" xmlns="http://www.w3.org/2000/svg">
<mask id="mask0_2615_520" style="mask-type:alpha" maskUnits="userSpaceOnUse" x="0" y="0" width="80" height="80">
<path d="M0 8C0 3.58172 3.58172 0 8 0H80V80H0V8Z" fill="#D9D9D9"/>
</mask>
<g mask="url(#mask0_2615_520)">
<circle cx="20.002" cy="19.9998" r="52" fill="#E8EBF9" fill-opacity="0.6"/>
</g>
<g clip-path="url(#clip0_2615_520)">
<path fill-rule="evenodd" clip-rule="evenodd" d="M36.8006 18.4547C29.1013 18.4547 22.8597 24.6963 22.8597 32.3956V32.6393H23.7974L25.8782 31.2469L27.959 32.6393H29.3919L31.4727 31.2469L33.5535 32.6393H37.7783V53.1379C37.7783 55.346 35.9882 57.136 33.7801 57.136C31.572 57.136 29.782 55.346 29.782 53.1379V51.2818C29.782 50.8891 30.1004 50.5707 30.4931 50.5707C30.8858 50.5707 31.2042 50.8891 31.2042 51.2818V53.1379C31.2042 54.5605 32.3575 55.7138 33.7801 55.7138C35.2028 55.7138 36.3561 54.5605 36.3561 53.1379V34.0616H33.1215L31.4727 32.9582L29.8239 34.0616H27.5271L25.8782 32.9582L24.2294 34.0616H21.4375V32.3956C21.4375 23.9108 28.3158 17.0325 36.8006 17.0325C45.2855 17.0325 52.1637 23.9108 52.1637 32.3956V34.0616H46.3155L43.9997 32.8983L41.8346 33.9859C41.4837 34.1622 41.0562 34.0206 40.88 33.6696C40.7037 33.3187 40.8453 32.8913 41.1962 32.715L43.9997 31.3068L46.6526 32.6393H50.7415V32.3956C50.7415 24.6962 44.5 18.4547 36.8006 18.4547Z" fill="#5E40E0"/>
<path fill-rule="evenodd" clip-rule="evenodd" d="M65.1561 54.0805H43.606C42.7659 54.0805 42.0762 53.4119 42.0762 52.5888V40.0622C42.0762 39.6615 42.2351 39.2772 42.5331 38.9982L53.2586 28.7204C53.8545 28.154 54.8024 28.1488 55.4013 28.7149L66.2346 38.9982C66.5326 39.2828 66.6916 39.6615 66.6916 40.0618V52.5778C66.6884 53.4119 66.0076 54.0805 65.1561 54.0805Z" fill="#9684E6"/>
<path d="M51.4531 42.8519H57.6856" stroke="white" stroke-width="1.12" stroke-linecap="round" stroke-linejoin="round"/>
<path d="M51.4531 40.2833H57.6856" stroke="white" stroke-width="1.12" stroke-linecap="round" stroke-linejoin="round"/>
<path d="M53.1443 40.2596C54.6282 40.2596 55.8381 41.4695 55.8381 42.9535C55.8381 44.437 54.6282 45.6469 53.1443 45.6469H51.7285L55.9063 49.3912" stroke="white" stroke-width="1.12" stroke-linecap="round" stroke-linejoin="round"/>
</g>
<defs>
<clipPath id="clip0_2615_520">
<rect width="45.7143" height="41.0256" fill="white" transform="translate(20.9766 16.5714)"/>
</clipPath>
</defs>
</svg>
