<svg width="80" height="80" viewBox="0 0 80 80" fill="none" xmlns="http://www.w3.org/2000/svg">
<mask id="mask0_2615_461" style="mask-type:alpha" maskUnits="userSpaceOnUse" x="0" y="0" width="80" height="80">
<path d="M0 8C0 3.58172 3.58172 0 8 0H80V80H0V8Z" fill="#D9D9D9"/>
</mask>
<g mask="url(#mask0_2615_461)">
<circle cx="20" cy="19.9999" r="52" fill="#E8EBF9" fill-opacity="0.6"/>
<path fill-rule="evenodd" clip-rule="evenodd" d="M40.7716 63.7652L40.805 63.7941L40.8284 63.7719L40.7716 63.7652Z" fill="#5E40E0"/>
<path fill-rule="evenodd" clip-rule="evenodd" d="M49.1718 47.0435H22.8614C21.8352 47.0435 20.9922 46.2377 20.9922 45.249V30.1676C20.9922 29.6829 21.1895 29.227 21.554 28.8864L34.6488 16.5148C35.3781 15.8342 36.5351 15.8246 37.2641 16.5051L50.4889 28.8864C50.8534 29.227 51.0507 29.6861 51.0507 30.1676V45.2393C51.041 46.2377 50.2084 47.0435 49.1718 47.0435Z" fill="#5E40E0" fill-opacity="0.6"/>
<path fill-rule="evenodd" clip-rule="evenodd" d="M48.9492 50.0899V57.1199C48.9492 62.5968 52.8579 67.0396 57.6799 67.0396H63.512H63.5618C68.3537 67.004 72.2062 62.5614 72.1724 57.1199V57.0721C72.2159 56.8891 72.2363 56.6997 72.2363 56.5067L72.2096 48.4942C72.2025 47.2615 71.1629 46.2634 69.8752 46.2634H64.2005" fill="#EFF1F9"/>
<path fill-rule="evenodd" clip-rule="evenodd" d="M63.5093 67.9994H57.6775C52.3105 67.9994 47.9434 63.1167 47.9434 57.1169V50.0863C47.9434 49.5538 48.3914 49.1233 48.9465 49.1233C49.5013 49.1233 49.9497 49.5538 49.9497 50.0863V57.1169C49.9497 62.0538 53.417 66.0733 57.6775 66.0733H63.5625C67.7825 66.0408 71.2003 62.0253 71.1699 57.1233V57.0684C71.1699 56.9949 71.1799 56.9208 71.1967 56.8505C71.2234 56.7474 71.2338 56.6354 71.2338 56.5034L71.207 48.4941C71.2037 47.7946 70.6051 47.2229 69.8762 47.2229H64.2012C63.6461 47.2229 63.198 46.7927 63.198 46.2598C63.198 45.7272 63.6461 45.2968 64.2012 45.2968H69.8762C71.7086 45.2968 73.2067 46.7253 73.2134 48.4848L73.2401 56.4973C73.2401 56.7346 73.2201 56.9532 73.1763 57.1651C73.1863 63.1003 68.8864 67.9541 63.5695 67.9958H63.5093V67.9994Z" fill="#5E40E0"/>
<path fill-rule="evenodd" clip-rule="evenodd" d="M56.6387 57.3708L64.2157 57.4125V29.7729H45.1758V57.4125H52.9434V33.5385" fill="#EFF1F9"/>
<path fill-rule="evenodd" clip-rule="evenodd" d="M52.9446 58.3752H45.177C44.6216 58.3752 44.1738 57.945 44.1738 57.4122V29.7726C44.1738 29.2397 44.6216 28.8096 45.177 28.8096H64.217C64.7721 28.8096 65.2201 29.2397 65.2201 29.7726V57.4122C65.2201 57.669 65.1135 57.9133 64.9259 58.0959C64.739 58.2757 64.4845 58.3752 64.217 58.3752H64.2103L56.633 58.3335C56.0779 58.3303 55.6331 57.8969 55.6365 57.3643C55.6401 56.8343 56.0879 56.4074 56.6396 56.4074H56.6463L63.2138 56.4427V30.7357H46.1802V56.4491H51.9414V33.5381C51.9414 33.0053 52.3895 32.5751 52.9446 32.5751C53.4997 32.5751 53.9478 33.0053 53.9478 33.5381V57.4122C53.9478 57.945 53.4997 58.3752 52.9446 58.3752Z" fill="#5E40E0"/>
<path fill-rule="evenodd" clip-rule="evenodd" d="M55.9531 36.5175V34.3539C55.9531 33.6862 56.5249 33.134 57.2242 33.134H59.4776C60.1732 33.134 60.7483 33.683 60.7483 34.3539V36.5175C60.7483 37.1853 60.1768 37.7374 59.4776 37.7374H57.2242C56.5249 37.7374 55.9531 37.1885 55.9531 36.5175Z" fill="#5E40E0" fill-opacity="0.6"/>
<path fill-rule="evenodd" clip-rule="evenodd" d="M45.3534 31.621C46.9712 31.621 48.2827 32.88 48.2827 34.4331C48.2827 35.9862 46.9712 37.2452 45.3534 37.2452C43.7353 37.2452 42.4238 35.9862 42.4238 34.4331C42.4238 32.88 43.7353 31.621 45.3534 31.621Z" fill="#EFF1F9"/>
<path fill-rule="evenodd" clip-rule="evenodd" d="M45.356 32.5813C44.2923 32.5813 43.4296 33.4128 43.4296 34.4304C43.4296 35.448 44.2956 36.2794 45.356 36.2794C46.4194 36.2794 47.2821 35.448 47.2821 34.4304C47.2821 33.4128 46.4194 32.5813 45.356 32.5813ZM45.3527 38.2083C43.1825 38.2083 41.4199 36.5137 41.4199 34.4335C41.4199 32.3533 43.1858 30.6583 45.3527 30.6583C47.5226 30.6583 49.2852 32.3533 49.2852 34.4335C49.2852 36.5137 47.5226 38.2083 45.3527 38.2083Z" fill="#5E40E0"/>
<path fill-rule="evenodd" clip-rule="evenodd" d="M44.7194 38.4138C46.3723 38.4138 47.7122 39.7001 47.7122 41.2869C47.7122 42.8737 46.3723 44.1597 44.7194 44.1597C43.0665 44.1597 41.7266 42.8737 41.7266 41.2869C41.7266 39.7001 43.0665 38.4138 44.7194 38.4138Z" fill="#EFF1F9"/>
<path fill-rule="evenodd" clip-rule="evenodd" d="M44.726 39.3746C43.6292 39.3746 42.7363 40.2317 42.7363 41.2844C42.7363 42.3373 43.6295 43.1944 44.726 43.1944C45.8228 43.1944 46.7156 42.3373 46.7156 41.2844C46.7156 40.2317 45.8228 39.3746 44.726 39.3746ZM44.7226 45.1234C42.5189 45.1234 40.7266 43.4031 40.7266 41.2876C40.7266 39.1717 42.5189 37.4514 44.7226 37.4514C46.9262 37.4514 48.7185 39.1717 48.7185 41.2876C48.7185 43.4031 46.9262 45.1234 44.7226 45.1234Z" fill="#5E40E0"/>
<path fill-rule="evenodd" clip-rule="evenodd" d="M44.7222 45.4052C46.34 45.4052 47.6515 46.6645 47.6515 48.2176C47.6515 49.7707 46.34 51.0297 44.7222 51.0297C43.1045 51.0297 41.793 49.7707 41.793 48.2176C41.793 46.6645 43.1045 45.4052 44.7222 45.4052Z" fill="#EFF1F9"/>
<path fill-rule="evenodd" clip-rule="evenodd" d="M44.7247 46.3683C43.6614 46.3683 42.7986 47.2001 42.7986 48.2177C42.7986 49.2353 43.6647 50.0667 44.7247 50.0667C45.7848 50.0667 46.6508 49.2353 46.6508 48.2177C46.6508 47.2001 45.7881 46.3683 44.7247 46.3683ZM44.7215 51.9931C42.5513 51.9931 40.7891 50.2978 40.7891 48.218C40.7891 46.1375 42.555 44.4425 44.7215 44.4425C46.8884 44.4425 48.654 46.1375 48.654 48.218C48.654 50.2978 46.8884 51.9931 44.7215 51.9931Z" fill="#5E40E0"/>
<path fill-rule="evenodd" clip-rule="evenodd" d="M45.3542 51.0011C46.6152 51.0011 47.6378 51.9828 47.6378 53.1936C47.6378 54.4045 46.6152 55.3862 45.3542 55.3862C44.0929 55.3862 43.0703 54.4045 43.0703 53.1936C43.0703 51.9828 44.0929 51.0011 45.3542 51.0011Z" fill="#EFF1F9"/>
<path fill-rule="evenodd" clip-rule="evenodd" d="M45.353 51.9637C44.6474 51.9637 44.0723 52.5159 44.0723 53.1932C44.0723 53.8703 44.6474 54.4227 45.353 54.4227C46.0582 54.4227 46.6334 53.8703 46.6334 53.1932C46.6334 52.5159 46.0582 51.9637 45.353 51.9637ZM45.3535 56.3489C43.5407 56.3489 42.0664 54.9332 42.0664 53.1933C42.0664 51.4534 43.5411 50.0377 45.3535 50.0377C47.1659 50.0377 48.6402 51.4534 48.6402 53.1933C48.6402 54.9332 47.1659 56.3489 45.3535 56.3489Z" fill="#5E40E0"/>
<path fill-rule="evenodd" clip-rule="evenodd" d="M72.0649 47.743L67.2367 41.053C66.093 39.5602 63.9827 39.1814 62.5217 40.2186C61.0604 41.2456 60.806 43.294 61.9499 44.7931L64.7655 48.6675H67.5172" fill="#EFF1F9"/>
<path fill-rule="evenodd" clip-rule="evenodd" d="M67.5227 49.634H64.771C64.4429 49.634 64.1353 49.48 63.9484 49.2231L61.1328 45.3482C59.6778 43.4416 60.0289 40.7836 61.9316 39.445C62.8181 38.8158 63.9213 38.559 65.0415 38.7195C66.2252 38.8893 67.319 39.5345 68.0477 40.4851L72.8934 47.194C73.2073 47.6309 73.0937 48.2312 72.6392 48.5326C72.1841 48.8347 71.5588 48.7256 71.2448 48.289L66.4158 41.599C66.0179 41.0789 65.4026 40.7162 64.7439 40.6199C64.1587 40.5361 63.5805 40.6677 63.1258 40.992C62.1122 41.7049 61.952 43.1556 62.7676 44.2246L65.2993 47.7044H67.5297C68.0848 47.7044 68.5329 48.1349 68.5329 48.6675C68.5329 49.2004 68.0778 49.634 67.5227 49.634Z" fill="#5E40E0"/>
</g>
</svg>
