<?xml version="1.0" encoding="UTF-8"?>
<svg version="1.1" xmlns="http://www.w3.org/2000/svg" width="1875" height="1861">
<path d="M0 0 C1.00281006 0.49717529 1.00281006 0.49717529 2.02587891 1.00439453 C18.6705477 9.34915011 33.82389532 20.06518149 47.48828125 32.69921875 C49.473007 34.51726458 51.48456865 36.27222755 53.5276947 38.02259827 C58.58893737 42.44858818 63.32132172 47.18130492 68.06860352 51.93920898 C69.05328138 52.92252868 70.03817116 53.90563621 71.02325439 54.8885498 C73.67632145 57.53709188 76.32625632 60.18874649 78.97546887 62.84114337 C81.76135091 65.62957468 84.54969196 68.41554541 87.33763123 71.20191956 C92.01716942 75.87964351 96.69460691 80.55946026 101.37084961 85.24047852 C106.76080097 90.63587106 112.15434506 96.02765196 117.54976898 101.41757149 C122.19983437 106.06308446 126.84793016 110.71056138 131.49441475 115.35965592 C134.26178761 118.12857987 137.02981273 120.8968427 139.79962349 123.66332817 C142.40470652 126.26550146 145.00729101 128.87014915 147.60804749 131.47664642 C149.00648926 132.87701973 150.40736348 134.27496266 151.80833435 135.67280579 C152.65622528 136.52351654 153.50411621 137.37422729 154.37770081 138.25071716 C155.46964925 139.34323115 155.46964925 139.34323115 156.58365726 140.45781612 C158.46481906 142.43694728 160.23930299 144.437494 162.0108065 146.51115566 C166.5305168 151.68548714 171.37987114 156.51554467 176.24343872 161.36369324 C177.27635953 162.39705098 178.30906015 163.43062886 179.34156203 164.46440518 C182.17408622 167.29915836 185.00971026 170.13079266 187.84585652 172.96192135 C190.93288776 176.04460482 194.01699464 179.13021173 197.10147285 182.21544933 C202.5060882 187.62059722 207.91255057 193.02389207 213.32022858 198.4259758 C221.36162112 206.45907291 229.40012781 214.49505316 237.43802482 222.53164771 C250.96147448 236.05276305 264.48718027 249.57161933 278.01409912 263.08926392 C296.48605964 281.54862049 314.95473857 300.01125768 333.42254186 318.47477329 C342.02617196 327.0763971 350.62996262 335.6778603 359.23379517 344.27928162 C360.09509701 345.14034245 360.95639886 346.00140329 361.84380077 346.88855688 C382.34329922 367.3822444 402.84437014 387.87435866 423.34570312 408.36621094 C424.24270291 409.26279708 425.13970269 410.15938321 426.06388429 411.08313863 C439.70919538 424.72215326 453.35458843 438.3610859 467 452 C481.55147877 466.54454986 496.1029274 481.08912986 510.65429688 495.63378906 C511.55081641 496.52989401 512.44733594 497.42599895 513.37102273 498.34925859 C533.83685324 518.80564183 554.30223444 539.26247431 574.76620483 559.72071838 C575.62612734 560.58039989 576.48604984 561.4400814 577.3720306 562.32581387 C585.95656917 570.90796717 594.54102909 579.49019914 603.12537157 588.07254859 C621.57314125 606.51600041 640.02228981 624.95806992 658.4742251 643.39735427 C671.92331906 656.83726906 685.37070258 670.27889311 698.81629705 683.72230887 C706.80722838 691.71182422 714.79957846 699.69991433 722.79393587 707.68600154 C728.13192656 713.01874045 733.46810711 718.35328607 738.80281582 723.68930817 C741.84353073 726.73066479 744.88503746 729.77121787 747.92876458 732.80956018 C750.69926382 735.57518665 753.46743488 738.34312165 756.2337909 741.11289226 C757.22718212 742.10670368 758.22140896 743.09968073 759.21658656 744.09170331 C764.69846421 749.55720005 769.97482767 755.1123577 775 761 C776.03278029 762.16877049 777.06761633 763.33573116 778.10546875 764.5 C803.51655292 793.25711466 824.92642283 826.31040144 835.9375 863.3125 C836.20796143 864.21718018 836.47842285 865.12186035 836.75708008 866.05395508 C841.06586115 881.4194371 842.5853547 896.65322621 842.5 912.5625 C842.49856995 913.4303009 842.49713989 914.29810181 842.4956665 915.19219971 C842.43591076 929.91540642 841.07074795 943.78865615 837 958 C836.77006348 958.82000488 836.54012695 959.64000977 836.30322266 960.48486328 C834.78344905 965.75835939 833.00083002 970.8908217 831 976 C830.72349609 976.7110791 830.44699219 977.4221582 830.16210938 978.15478516 C822.37946546 997.73876326 811.11798464 1015.57865096 798 1032 C796.84757812 1033.46953125 796.84757812 1033.46953125 795.671875 1034.96875 C790.30368165 1041.68864671 784.5143664 1047.98382398 778.63427734 1054.25244141 C776.95277272 1056.05050088 775.28206122 1057.85809798 773.61328125 1059.66796875 C767.18241069 1066.62630098 760.65584561 1073.45584407 753.88134766 1080.08178711 C751.05951746 1082.85916904 748.37235907 1085.68962097 745.79734802 1088.69847107 C742.02996606 1093.02321523 738.0487208 1097.09224419 733.98852539 1101.14086914 C733.2200679 1101.91107895 732.45161041 1102.68128876 731.65986633 1103.47483826 C729.1416236 1105.99744999 726.6197787 1108.51642393 724.09765625 1111.03515625 C722.33306018 1112.80042678 720.56861251 1114.56584567 718.80430603 1116.33140564 C714.64408703 1120.49328261 710.48130604 1124.65258485 706.31759399 1128.81096691 C703.00910851 1132.1156982 699.70317199 1135.42296358 696.39868164 1138.73168945 C691.82178819 1143.31439713 687.24243635 1147.8946321 682.66100883 1152.47280693 C680.9224463 1154.21070521 679.18461848 1155.94933881 677.44755745 1157.68873787 C675.01441486 1160.12443677 672.57806066 1162.55687877 670.14086914 1164.98852539 C669.43256958 1165.69884918 668.72427002 1166.40917297 667.99450684 1167.14102173 C664.82104739 1170.30120458 661.61956638 1173.36779057 658.21801758 1176.28198242 C652.66848526 1181.07623628 647.54805528 1186.31222621 642.37084961 1191.49975586 C641.21868655 1192.65056142 640.06631141 1193.80115468 638.91374207 1194.95155334 C635.80407452 1198.05668799 632.69754729 1201.16494622 629.59173656 1204.27393794 C626.32938978 1207.53882981 623.06458864 1210.80126595 619.80018616 1214.06410217 C614.32031393 1219.54215897 608.8425446 1225.02231191 603.3659668 1230.50366211 C597.04897926 1236.82609105 590.72839754 1243.14490968 584.40593714 1249.46186537 C578.96182496 1254.90142857 573.51967769 1260.34295185 568.07914549 1265.78609568 C564.83669728 1269.03009685 561.59359166 1272.27343305 558.3487072 1275.51499748 C555.29712529 1278.56367471 552.2480306 1281.6148185 549.20077705 1284.66782188 C548.08707582 1285.78283684 546.97253863 1286.89701759 545.85707092 1288.01026535 C544.3249342 1289.53963552 542.79596424 1291.07210785 541.26768494 1292.60533142 C540.41435546 1293.45903792 539.56102598 1294.31274443 538.68183804 1295.19232082 C536.66633312 1297.30240022 534.75832931 1299.42580393 532.86170721 1301.63776904 C528.92863789 1306.14364715 524.76285778 1310.37959048 520.5308466 1314.60337448 C519.28496689 1315.85278253 519.28496689 1315.85278253 518.01391789 1317.12743115 C515.71878161 1319.42805694 513.42145073 1321.72646403 511.12314693 1324.0239247 C508.61904754 1326.5281946 506.11782461 1329.03533486 503.61621803 1331.54209447 C498.65897099 1336.50863963 493.69904972 1341.4725061 488.73828954 1346.43554193 C482.79426186 1352.38253892 476.85310325 1358.33239913 470.91196414 1364.2822816 C456.55435174 1378.66070852 442.19157886 1393.03397597 427.82796657 1407.40640878 C421.02994467 1414.20864106 414.23242851 1421.01137865 407.43492797 1427.81413191 C384.15546754 1451.11147903 360.8745614 1474.40738057 337.58987522 1497.69950485 C336.1289063 1499.16094853 334.66793794 1500.62239277 333.20697015 1502.08383758 C332.12023799 1503.17092431 332.12023799 1503.17092431 331.01155165 1504.27997238 C327.34110939 1507.9516158 323.67067429 1511.62326636 320.00024414 1515.29492188 C319.27184357 1516.0235626 318.543443 1516.75220332 317.79296968 1517.50292406 C294.17900289 1541.12478297 270.57281852 1564.75439919 246.97116328 1588.38855868 C222.00400948 1613.39003435 197.02954683 1638.38418649 172.0468716 1663.37015271 C169.30276916 1666.11467268 166.55869774 1668.85922366 163.81464958 1671.60379791 C163.13901012 1672.27956057 162.46337065 1672.95532323 161.76725726 1673.65156354 C150.90974649 1684.51140321 140.05890711 1695.37788503 129.2104857 1706.24680365 C118.29983515 1717.17774116 107.38177599 1728.10123504 96.45623196 1739.01728675 C89.97223385 1745.49608135 83.49380177 1751.98032508 77.02337713 1758.47267625 C72.69223938 1762.81737552 68.35377213 1767.15466533 64.00946015 1771.48619127 C61.5399903 1773.94880008 59.07364792 1776.4143138 56.61624367 1778.88896784 C41.71468592 1793.87573963 26.55673311 1806.79620675 8 1817 C7.3822168 1817.3398291 6.76443359 1817.6796582 6.12792969 1818.02978516 C-19.75717513 1832.04473963 -49.12375175 1841.28514837 -78.65234375 1841.3359375 C-80.04220199 1841.34239404 -81.43205899 1841.34912429 -82.82191467 1841.35610962 C-85.72221003 1841.36799806 -88.62238713 1841.37179967 -91.52270508 1841.37060547 C-94.45004184 1841.37044368 -97.37674771 1841.38422262 -100.30395508 1841.41162109 C-124.46551688 1841.63429372 -146.11902093 1839.09779506 -169 1831 C-170.22460938 1830.57203125 -171.44921875 1830.1440625 -172.7109375 1829.703125 C-203.08582469 1818.30416071 -226.90803529 1799.4768207 -249.48779297 1776.72338867 C-250.76706092 1775.44191199 -252.04678392 1774.16088945 -253.32691956 1772.88027954 C-256.05301373 1770.15128244 -258.77595835 1767.41919732 -261.49636459 1764.68453026 C-265.80434406 1760.35403915 -270.11962635 1756.03087272 -274.43582153 1751.70857239 C-281.26139614 1744.87167697 -288.08227148 1738.03011587 -294.90105164 1731.18644458 C-307.11959369 1718.92338055 -319.34386781 1706.66603672 -331.57335961 1694.41389257 C-335.85726817 1690.12161586 -340.13835282 1685.82654856 -344.41712642 1681.52915323 C-347.08075817 1678.85483364 -349.74645654 1676.18258095 -352.41265678 1673.5108223 C-353.64220588 1672.27782154 -354.8708834 1671.04395089 -356.09859276 1669.80911827 C-357.78301082 1668.11514716 -359.47058805 1666.42438273 -361.15890503 1664.73429871 C-361.87419776 1664.01259036 -361.87419776 1664.01259036 -362.60394084 1663.27630204 C-365.21934587 1660.66517113 -367.91071161 1658.19283833 -370.714737 1655.78473926 C-374.82459121 1652.19941553 -378.70687256 1648.4327449 -382.55535984 1644.5704813 C-383.27498711 1643.85230747 -383.99461439 1643.13413363 -384.73604855 1642.39419696 C-387.13829571 1639.99558892 -389.5369793 1637.59344948 -391.9356842 1635.19129944 C-393.67805408 1633.4500822 -395.42064182 1631.70908295 -397.16342825 1629.96828264 C-400.94773302 1626.18728066 -404.73048398 1622.40473428 -408.51185989 1618.62080383 C-414.1349855 1612.99388984 -419.76097365 1607.3698444 -425.38752042 1601.74635162 C-435.43745792 1591.70167615 -445.4845372 1581.65414566 -455.53039897 1571.60539416 C-464.32175588 1562.81152081 -473.11404272 1554.01857855 -481.90725517 1545.22656059 C-482.782464 1544.35146634 -482.782464 1544.35146634 -483.67535381 1543.45869342 C-486.04391208 1541.0904465 -488.41247388 1538.7222031 -490.78104149 1536.35396551 C-512.99600703 1514.14205836 -535.20805641 1491.92723709 -557.41880089 1469.71110921 C-577.14792667 1449.9772379 -596.87963591 1430.24595328 -616.61352539 1410.5168457 C-638.78924243 1388.34648432 -660.96334162 1366.17450687 -683.13483614 1343.99992269 C-685.49874111 1341.63569701 -687.86265002 1339.27147526 -690.22656059 1336.90725517 C-691.0996289 1336.03406825 -691.0996289 1336.03406825 -691.99033495 1335.14324118 C-700.77644591 1326.35599318 -709.56378928 1317.56997888 -718.35173225 1308.78456306 C-728.34488131 1298.79427344 -738.33624111 1288.80219824 -748.32524783 1278.80776674 C-753.9144757 1273.21560359 -759.50507018 1267.62481501 -765.09765336 1262.03600739 C-769.27365152 1257.86251742 -773.44703086 1253.68641566 -777.61939435 1249.50929182 C-779.30749542 1247.82007328 -780.99644059 1246.13169778 -782.68631185 1244.44425011 C-784.98335036 1242.15025356 -787.27728538 1239.85319673 -789.5704813 1237.55535984 C-790.2268392 1236.90134311 -790.8831971 1236.24732637 -791.55944464 1235.57349095 C-795.34497353 1231.77264133 -798.94269414 1227.85922753 -802.43727031 1223.78879919 C-804.85208039 1221.02465492 -807.4302434 1218.4379437 -810.03369141 1215.8527832 C-810.88054976 1215.00570156 -810.88054976 1215.00570156 -811.74451637 1214.14150715 C-813.61116512 1212.27554531 -815.48134853 1210.41316918 -817.3515625 1208.55078125 C-818.7010493 1207.20321633 -820.0503066 1205.85542155 -821.39935303 1204.50741577 C-824.29253213 1201.61738492 -827.18725434 1198.72891199 -830.08319092 1195.84164429 C-834.66711394 1191.2713021 -839.24716813 1186.69709591 -843.82666016 1182.12231445 C-853.54814385 1172.41190685 -863.27385044 1162.70573383 -873 1153 C-883.50196003 1142.52008417 -894.00318411 1132.03943726 -904.49952507 1121.55389309 C-909.04725377 1117.01113142 -913.59740598 1112.47081578 -918.14945984 1107.93238831 C-920.98552183 1105.10381219 -923.81948666 1102.27314196 -926.6529007 1099.4419136 C-927.96169874 1098.13497949 -929.27135689 1096.82890601 -930.58196259 1095.52378464 C-942.58833117 1083.56605731 -942.58833117 1083.56605731 -947.63244057 1077.59086323 C-950.02471071 1074.80796802 -952.65183703 1072.26384972 -955.2734375 1069.69921875 C-956.44024333 1068.54506254 -957.60690549 1067.39076109 -958.7734375 1066.23632812 C-960.57026434 1064.46417224 -962.36868414 1062.69369817 -964.16992188 1060.92602539 C-971.61518433 1053.61021917 -978.57795285 1046.24654797 -985 1038 C-985.85682373 1036.9318103 -985.85682373 1036.9318103 -986.73095703 1035.84204102 C-1007.15266239 1010.3661655 -1022.65193061 980.94131714 -1030 949 C-1030.16371094 948.3184082 -1030.32742188 947.63681641 -1030.49609375 946.93457031 C-1036.04157711 922.8621312 -1034.72710523 894.87177659 -1029 871 C-1028.79632812 870.15018555 -1028.59265625 869.30037109 -1028.3828125 868.42480469 C-1018.81629737 830.23255988 -996.66989088 796.13164951 -970.24173986 767.44512754 C-968.09736566 765.10619942 -965.98901933 762.73893938 -963.88216221 760.36624062 C-958.97014035 754.90654326 -953.83568243 749.6990933 -948.63540459 744.51515007 C-947.61379639 743.49310456 -946.59240854 742.47083876 -945.57121855 741.4483754 C-942.77942411 738.65435945 -939.98454271 735.86344989 -937.18912475 733.07305992 C-934.14276722 730.03106109 -931.09934535 726.98612751 -928.05554593 723.94156945 C-922.72545473 718.6109464 -917.39352041 713.28217261 -912.06036377 707.95461655 C-904.1298153 700.03237279 -896.20216151 692.1072371 -888.27511367 684.18149078 C-874.93732098 670.84603095 -861.59727316 657.51282926 -848.25600815 644.18084335 C-830.03818929 625.97563455 -811.82365745 607.76713971 -793.60999955 589.55776812 C-785.12264907 581.0724238 -776.63513796 572.58724016 -768.14758492 564.10209846 C-767.29796587 563.25272043 -766.44834682 562.4033424 -765.57298175 561.52822564 C-745.35691982 541.31797315 -725.13928459 521.10929474 -704.92138672 500.90087891 C-704.03691145 500.01681728 -703.15243618 499.13275566 -702.24115863 498.22190429 C-688.7858331 484.77287548 -675.33042558 471.32392871 -661.875 457.875 C-647.52257684 443.52950651 -633.17018438 429.18398231 -618.81787109 414.83837891 C-617.93356706 413.95448946 -617.04926303 413.07060002 -616.1381619 412.15992605 C-595.95094768 391.98215919 -575.7641829 371.80394297 -555.57882881 351.62431526 C-554.3065232 350.35237114 -554.3065232 350.35237114 -553.00851444 349.05473117 C-544.54102912 340.58963111 -536.07362245 332.12445239 -527.60633322 323.6591562 C-509.41190757 305.46904801 -491.21610337 287.28032188 -473.01751124 269.09438206 C-459.75461582 255.84066581 -446.49343083 242.58524031 -433.23403488 229.32802306 C-425.35418258 221.44958666 -417.47291172 213.5725754 -409.58963308 205.69756742 C-404.32575527 200.43894169 -399.06368797 195.17850894 -393.80309225 189.9165999 C-390.80474254 186.91760853 -387.80560148 183.9194204 -384.80423926 180.92344366 C-382.07220568 178.19628364 -379.34250147 175.46681419 -376.61461125 172.73550989 C-375.17428348 171.29456432 -373.7315014 169.85607327 -372.28861171 168.41769308 C-367.83858225 163.957419 -363.52050636 159.4463905 -359.42764699 154.65473125 C-357.38024048 152.28166035 -355.19359766 150.06449149 -352.98028564 147.84657288 C-352.52470803 147.38872971 -352.06913042 146.93088653 -351.59974742 146.45916933 C-350.10170473 144.95489351 -348.60021094 143.45411519 -347.09863281 141.95336914 C-346.01181628 140.86355443 -344.92520294 139.77353707 -343.83877563 138.68333435 C-340.90707855 135.7428604 -337.97219961 132.8055829 -335.03643131 129.86917424 C-333.1969937 128.02902257 -331.35827139 126.18815925 -329.51979828 124.34704399 C-323.0905922 117.90860561 -316.65882774 111.47273594 -310.22460938 105.03930664 C-304.25171478 99.06701237 -298.28441715 93.08916634 -292.31972623 87.10867983 C-287.17740332 81.95323086 -282.03118076 76.80169624 -276.88197207 71.65312475 C-273.81598924 68.5873954 -270.75153727 65.52017543 -267.69101715 62.44899178 C-264.80949925 59.55770709 -261.92310463 56.67137716 -259.0330925 53.78858376 C-257.98134958 52.73787608 -256.93126579 51.68550419 -255.8830986 50.6312294 C-249.24387787 43.95587579 -242.36999895 37.85750307 -235 32 C-233.96059802 31.12503796 -232.92554971 30.24482557 -231.8984375 29.35546875 C-218.38989077 17.74982876 -203.82843095 8.13715112 -188 0 C-186.93265625 -0.54914062 -186.93265625 -0.54914062 -185.84375 -1.109375 C-169.36934026 -9.46771523 -152.23404757 -15.02773635 -134 -18 C-133.25057129 -18.12391113 -132.50114258 -18.24782227 -131.72900391 -18.37548828 C-88.40816174 -24.99511407 -39.27782489 -19.5871444 0 0 Z M-336 510 C-336.54930176 510.46051758 -337.09860352 510.92103516 -337.66455078 511.39550781 C-358.32606121 528.74827515 -374.53500944 548.59798774 -388 572 C-388.36432129 572.6202002 -388.72864258 573.24040039 -389.10400391 573.87939453 C-403.54966669 598.60174656 -411.29372429 626.9552259 -416 655 C-416.16661133 655.97565918 -416.33322266 656.95131836 -416.50488281 657.95654297 C-421.7098802 690.1186852 -421.45870141 725.89751015 -416 758 C-415.74259033 759.55750977 -415.74259033 759.55750977 -415.47998047 761.14648438 C-409.73261272 794.94244487 -398.06202358 827.95964272 -378 856 C-377.29101562 856.99515625 -376.58203125 857.9903125 -375.8515625 859.015625 C-371.34806363 865.17830766 -366.53291927 870.89610511 -361.33203125 876.48046875 C-359.34275104 878.62969108 -357.44496432 880.82061528 -355.5625 883.0625 C-295.77612881 951.27143156 -182.2118631 973.68810256 -98.72705078 995.07394409 C22.60147442 1026.19820352 22.60147442 1026.19820352 47.125 1067.50390625 C57.76471324 1086.20040713 61.77231338 1108.57848999 56.3125 1129.6875 C49.19499622 1153.92683104 35.13851035 1172.89933207 12.875 1185.1875 C-7.83958769 1196.02977297 -32.10338781 1200.07408625 -55.3203125 1200.203125 C-56.17359131 1200.21013931 -57.02687012 1200.21715363 -57.90600586 1200.22438049 C-60.64572501 1200.2417821 -63.38522761 1200.24823341 -66.125 1200.25 C-67.53310944 1200.25101212 -67.53310944 1200.25101212 -68.96966553 1200.25204468 C-83.51832007 1200.23544477 -97.65978808 1199.63370486 -112 1197 C-113.42989258 1196.75056641 -113.42989258 1196.75056641 -114.88867188 1196.49609375 C-176.54528503 1185.55113283 -230.38735865 1154.45708115 -281 1119 C-281.67160156 1118.53029785 -282.34320312 1118.0605957 -283.03515625 1117.57666016 C-291.09500313 1111.9328842 -299.09810998 1106.21508361 -307.0625 1100.4375 C-313.01738726 1096.12113181 -319.00864235 1091.86410763 -325.0625 1087.6875 C-326.09032593 1086.97581665 -326.09032593 1086.97581665 -327.13891602 1086.24975586 C-329.84711306 1084.01001476 -329.84711306 1084.01001476 -333 1083 C-332.36841964 1097.55751168 -331.38709992 1112.07563725 -330.27050781 1126.60351562 C-329.99771618 1130.15473087 -329.72903588 1133.70624014 -329.4609375 1137.2578125 C-329.28669562 1139.54949722 -329.11222478 1141.84116455 -328.9375 1144.1328125 C-328.85830322 1145.17776886 -328.77910645 1146.22272522 -328.69750977 1147.29934692 C-328.271051 1152.83027772 -327.78718323 1158.34927777 -327.20562744 1163.86616516 C-326.3120716 1173.13876304 -325.53413323 1183.2516279 -331.5234375 1190.9609375 C-340.17500179 1199.61250179 -353.87697625 1200.71268158 -365.42529297 1202.86499023 C-385.58833204 1206.64478678 -405.54008075 1211.28576494 -425.5 1216 C-426.23192692 1216.17278599 -426.96385384 1216.34557198 -427.71796036 1216.5235939 C-436.81454495 1218.67161172 -445.90856933 1220.83026142 -455 1223 C-455 1223.99 -455 1224.98 -455 1226 C-453.29639256 1227.41559219 -453.29639256 1227.41559219 -451.00390625 1228.64453125 C-450.144021 1229.14903809 -449.28413574 1229.65354492 -448.39819336 1230.17333984 C-447.46241455 1230.7142627 -446.52663574 1231.25518555 -445.5625 1231.8125 C-437.61883601 1236.55903818 -430.42113958 1241.62871147 -423.38476562 1247.62402344 C-414.9077069 1254.83947296 -405.96332455 1261.40549038 -397 1268 C-395.85313721 1268.84908936 -395.85313721 1268.84908936 -394.68310547 1269.71533203 C-370.09488291 1287.89898175 -344.03026775 1303.72694069 -317 1318 C-315.70618408 1318.68594238 -315.70618408 1318.68594238 -314.38623047 1319.38574219 C-251.5035655 1352.47686613 -182.54360198 1369.54575883 -112 1375 C-110.75951904 1375.09716309 -109.51903809 1375.19432617 -108.2409668 1375.29443359 C-94.52866356 1376.23719147 -80.80225912 1376.2435059 -67.0625 1376.25 C-65.77653931 1376.25067474 -64.49057861 1376.25134949 -63.16564941 1376.25204468 C32.9934326 1376.17207404 128.83144002 1347.9381361 198.27734375 1278.73046875 C211.33357123 1264.84759 222.1615911 1248.83415945 231 1232 C231.4856543 1231.08186523 231.97130859 1230.16373047 232.47167969 1229.21777344 C248.91817619 1197.70852549 257.63098812 1164.14217539 262 1129 C262.10602539 1128.15477783 262.21205078 1127.30955566 262.32128906 1126.4387207 C263.32632272 1117.14035819 263.24376242 1107.77906788 263.25 1098.4375 C263.25067474 1097.52782471 263.25134949 1096.61814941 263.25204468 1095.6809082 C263.23432105 1080.58898963 262.49856873 1065.91271731 260 1051 C259.75056641 1049.47246094 259.75056641 1049.47246094 259.49609375 1047.9140625 C251.41944836 999.9328062 231.11362644 954.23578578 196 920 C195.3915625 919.35804688 194.783125 918.71609375 194.15625 918.0546875 C177.55916188 900.79612123 155.92170781 889.21171454 135 878 C133.72962891 877.31454102 133.72962891 877.31454102 132.43359375 876.61523438 C75.94865626 846.23505329 16.24637749 827.87801868 -45.66189575 812.23251343 C-63.92053508 807.61046287 -82.01701331 802.59894324 -100 797 C-101.77528076 796.45013428 -101.77528076 796.45013428 -103.58642578 795.88916016 C-140.3688531 784.38529731 -184.81770087 769.82173599 -205.3125 734.3828125 C-214.65810641 715.64833299 -216.06841041 693.97867984 -209.68457031 673.99853516 C-201.30509569 649.53548976 -185.91654901 632.13223402 -162.6875 620.75 C-103.74038978 595.04962948 -23.80885856 609.47049947 34 631 C40.81655908 633.69378344 47.44281736 636.72932972 54 640 C54.74523926 640.3697998 55.49047852 640.73959961 56.25830078 641.12060547 C68.85833834 647.43569279 80.57631625 654.76517003 92 663 C122.62370232 685.03168569 154.48091462 694.26182542 192.328125 688.24609375 C206.20523251 685.78932851 219.91488317 682.35412523 233.61035156 679.05419922 C237.30613635 678.16377432 241.00711875 677.297878 244.7109375 676.44140625 C246.47421955 676.02454086 248.2372725 675.60670413 250 675.1875 C250.74459473 675.01750488 251.48918945 674.84750977 252.25634766 674.67236328 C258.2293363 673.20713002 263.49979146 671.25031281 267 666 C267.32499482 660.35598583 266.66430195 655.21129193 265.62109375 649.6796875 C264.0804958 640.99545499 263.12155521 632.31886322 262.29321289 623.54217529 C259.47632942 594.02973188 256.13239942 562.92330384 231.95703125 542.67578125 C226.16845602 538.01932286 220.11648281 533.89578964 213.875 529.875 C213.31985718 529.51516022 212.76471436 529.15532043 212.19274902 528.78457642 C192.9698719 516.32665501 173.3041596 504.61175971 153 494 C151.88560547 493.41750488 150.77121094 492.83500977 149.62304688 492.23486328 C89.13932075 460.77253277 23.16061789 439.54424281 -45 434 C-46.64995972 433.86078125 -46.64995972 433.86078125 -48.33325195 433.71875 C-59.32294643 432.88138298 -70.29509545 432.75685545 -81.3125 432.75 C-82.2963266 432.74932526 -83.2801532 432.74865051 -84.29379272 432.74795532 C-169.21582571 432.83967582 -269.7023356 454.09603337 -336 510 Z M-837.0078125 875.125 C-846.68526667 886.52009755 -848.86581932 900.50146199 -848 915 C-845.91139272 927.64676377 -839.9435445 937.04092852 -831 946 C-830.4225 946.58910156 -829.845 947.17820312 -829.25 947.78515625 C-819.52134636 956.92915522 -805.25343093 960.45267787 -792.22265625 960.2734375 C-780.88232639 959.31122769 -770.97922437 956.1158886 -762 949 C-761.27296875 948.42636719 -760.5459375 947.85273437 -759.796875 947.26171875 C-749.48226379 938.06911678 -744.93262545 924.03738145 -743.6875 910.63671875 C-743.20863539 897.42304839 -746.20326744 884.79547585 -754 874 C-754.5775 873.113125 -755.155 872.22625 -755.75 871.3125 C-764.97039121 861.83598682 -777.53947796 856.52446391 -790.6640625 855.796875 C-809.98890796 855.5681786 -823.61514089 860.95065495 -837.0078125 875.125 Z M568 866 C567.29359375 866.51304687 566.5871875 867.02609375 565.859375 867.5546875 C556.62675194 874.91964253 551.03342077 885.45307492 549 897 C547.45352017 913.84349971 550.24848688 929.87197218 561.25 943.3125 C571.61610831 954.27095735 585.30116299 959.80909846 600.25 960.3125 C615.92739839 959.91504483 629.4568102 954.30625028 640.78125 943.44140625 C649.93223217 933.37210369 655.14669188 920.66068145 655 907 C654.07566477 892.72232185 649.74102411 881.51502021 640 871 C639.21882813 870.15501953 639.21882813 870.15501953 638.421875 869.29296875 C627.89388673 859.21693957 613.77922751 855.60534741 599.65673828 855.62866211 C588.07312798 855.93416113 577.39981633 859.10013482 568 866 Z " fill="#FF0660" transform="translate(1033,20)"/>
</svg>
