<?xml version="1.0"?><svg xmlns="http://www.w3.org/2000/svg" id="Timeline" viewBox="0 0 64 64"><rect x="1" y="1" width="30" height="14" rx="2" ry="2" style="fill:#ff6c9d; stroke-width:0px;"/><rect x="14" y="25" width="30" height="14" rx="2" ry="2" style="fill:#ffe094; stroke-width:0px;"/><rect x="27" y="49" width="30" height="14" rx="2" ry="2" style="fill:#64c4ff; stroke-width:0px;"/><path d="M52,23c-6.06542969,0-11-4.93457031-11-11S45.93457031,1,52,1s11,4.93457031,11,11-4.93457031,11-11,11Z" style="fill:#68ddc1; stroke-width:0px;"/><path d="M8.70703125,29.29296875c-.390625-.390625-1.0234375-.390625-1.4140625,0s-.390625,1.0234375,0,1.4140625l.29296875.29296875h-2.5859375c-.55175781,0-1-.44824219-1-1v-14h25c1.65429688,0,3-1.34570312,3-3V3c0-1.65429688-1.34570312-3-3-3H3C1.34570312,0,0,1.34570312,0,3v10c0,1.30194092.83850098,2.40155029,2,2.81567383v14.18432617c0,1.65429688,1.34570312,3,3,3h2.5859375l-.29296875.29296875c-.390625.390625-.390625,1.0234375,0,1.4140625.1953125.1953125.45117188.29296875.70703125.29296875s.51171875-.09765625.70703125-.29296875l2-2c.390625-.390625.390625-1.0234375,0-1.4140625l-2-2ZM2,3c0-.55175781.44824219-1,1-1h26c.55175781,0,1,.44824219,1,1v10c0,.55175781-.44824219,1-1,1H3c-.55175781,0-1-.44824219-1-1V3Z" style="fill:#393e4c; stroke-width:0px;"/><path d="M6,7h20c.55273438,0,1-.44726562,1-1s-.44726562-1-1-1H6c-.55273438,0-1,.44726562-1,1s.44726562,1,1,1Z" style="fill:#f45687; stroke-width:0px;"/><path d="M6,11h8c.55273438,0,1-.44726562,1-1s-.44726562-1-1-1H6c-.55273438,0-1,.44726562-1,1s.44726562,1,1,1Z" style="fill:#f45687; stroke-width:0px;"/><path d="M19,31h20c.55273438,0,1-.44726562,1-1s-.44726562-1-1-1h-20c-.55273438,0-1,.44726562-1,1s.44726562,1,1,1Z" style="fill:#fcc275; stroke-width:0px;"/><path d="M19,35h8c.55273438,0,1-.44726562,1-1s-.44726562-1-1-1h-8c-.55273438,0-1,.44726562-1,1s.44726562,1,1,1Z" style="fill:#fcc275; stroke-width:0px;"/><path d="M55,48h-26c-1.65429688,0-3,1.34570312-3,3v10c0,1.65429688,1.34570312,3,3,3h26c1.65429688,0,3-1.34570312,3-3v-10c0-1.65429688-1.34570312-3-3-3ZM56,61c0,.55175781-.44824219,1-1,1h-26c-.55175781,0-1-.44824219-1-1v-10c0-.55175781.44824219-1,1-1h26c.55175781,0,1,.44824219,1,1v10Z" style="fill:#393e4c; stroke-width:0px;"/><path d="M52,53h-20c-.55273438,0-1,.44726562-1,1s.44726562,1,1,1h20c.55273438,0,1-.44726562,1-1s-.44726562-1-1-1Z" style="fill:#45a9f4; stroke-width:0px;"/><path d="M40,57h-8c-.55273438,0-1,.44726562-1,1s.44726562,1,1,1h8c.55273438,0,1-.44726562,1-1s-.44726562-1-1-1Z" style="fill:#45a9f4; stroke-width:0px;"/><path d="M21.70703125,53.29296875c-.390625-.390625-1.0234375-.390625-1.4140625,0s-.390625,1.0234375,0,1.4140625l.29296875.29296875h-2.5859375c-.55175781,0-1-.44824219-1-1v-14h25c1.65429688,0,3-1.34570312,3-3v-10c0-1.65429688-1.34570312-3-3-3h-26c-1.65429688,0-3,1.34570312-3,3v10c0,1.30194092.83850098,2.40155029,2,2.81567383v14.18432617c0,1.65429688,1.34570312,3,3,3h2.5859375l-.29296875.29296875c-.390625.390625-.390625,1.0234375,0,1.4140625.1953125.1953125.45117188.29296875.70703125.29296875s.51171875-.09765625.70703125-.29296875l2-2c.390625-.390625.390625-1.0234375,0-1.4140625l-2-2ZM15,27c0-.55175781.44824219-1,1-1h26c.55175781,0,1,.44824219,1,1v10c0,.55175781-.44824219,1-1,1h-26c-.55175781,0-1-.44824219-1-1v-10Z" style="fill:#393e4c; stroke-width:0px;"/><path d="M52,0c-6.6171875,0-12,5.3828125-12,12s5.3828125,12,12,12,12-5.3828125,12-12S58.6171875,0,52,0ZM52,22c-5.51367188,0-10-4.48632812-10-10s4.48632812-10,10-10,10,4.48632812,10,10-4.48632812,10-10,10Z" style="fill:#393e4c; stroke-width:0px;"/><path d="M56.29296875,8.29296875l-5.29296875,5.29296875-3.29296875-3.29296875c-.390625-.390625-1.0234375-.390625-1.4140625,0s-.390625,1.0234375,0,1.4140625l4,4c.1953125.1953125.45117188.29296875.70703125.29296875s.51171875-.09765625.70703125-.29296875l6-6c.390625-.390625.390625-1.0234375,0-1.4140625s-1.0234375-.390625-1.4140625,0Z" style="fill:#4cc1a5; stroke-width:0px;"/></svg>