<svg xmlns="http://www.w3.org/2000/svg" width="119" height="86" viewBox="0 0 119 86" fill="none">
<g clip-path="url(#clip0_30_98)">
<path d="M94.2476 62.2451H55.0524V20.3004L74.745 4.49683L94.2476 23.8343V62.2451Z" fill="url(#paint0_linear_30_98)"/>
<path d="M97.1292 37.9287H61.435C60.9561 37.9287 60.568 38.3169 60.568 38.7957V39.2085C60.568 39.6874 60.9561 40.0755 61.435 40.0755H97.1292C97.608 40.0755 97.9962 39.6874 97.9962 39.2085V38.7957C97.9962 38.3169 97.608 37.9287 97.1292 37.9287Z" fill="url(#paint1_linear_30_98)"/>
<path d="M72.5239 38.3581H72.2597C71.9587 38.3581 71.7147 38.6021 71.7147 38.903V48.5553C71.7147 48.8562 71.9587 49.1002 72.2597 49.1002H72.5239C72.8249 49.1002 73.0688 48.8562 73.0688 48.5553V38.903C73.0688 38.6021 72.8249 38.3581 72.5239 38.3581Z" fill="url(#paint2_linear_30_98)"/>
<path d="M76.9 38.3581H76.6358C76.3348 38.3581 76.0908 38.6021 76.0908 38.903V48.5553C76.0908 48.8562 76.3348 49.1002 76.6358 49.1002H76.9C77.201 49.1002 77.4449 48.8562 77.4449 48.5553V38.903C77.4449 38.6021 77.201 38.3581 76.9 38.3581Z" fill="url(#paint3_linear_30_98)"/>
<path d="M81.1192 38.3581H80.855C80.554 38.3581 80.3101 38.6021 80.3101 38.903V48.5553C80.3101 48.8562 80.554 49.1002 80.855 49.1002H81.1192C81.4202 49.1002 81.6642 48.8562 81.6642 48.5553V38.903C81.6642 38.6021 81.4202 38.3581 81.1192 38.3581Z" fill="url(#paint4_linear_30_98)"/>
<path d="M85.4871 38.3581H85.2229C84.9219 38.3581 84.6779 38.6021 84.6779 38.903V48.5553C84.6779 48.8562 84.9219 49.1002 85.2229 49.1002H85.4871C85.7881 49.1002 86.032 48.8562 86.032 48.5553V38.903C86.032 38.6021 85.7881 38.3581 85.4871 38.3581Z" fill="url(#paint5_linear_30_98)"/>
<path d="M90.0119 38.3581H89.7476C89.4467 38.3581 89.2027 38.6021 89.2027 38.903V48.5553C89.2027 48.8562 89.4467 49.1002 89.7476 49.1002H90.0119C90.3128 49.1002 90.5568 48.8562 90.5568 48.5553V38.903C90.5568 38.6021 90.3128 38.3581 90.0119 38.3581Z" fill="url(#paint6_linear_30_98)"/>
<path d="M94.3797 38.3581H94.1155C93.8145 38.3581 93.5706 38.6021 93.5706 38.903V48.5553C93.5706 48.8562 93.8145 49.1002 94.1155 49.1002H94.3797C94.6807 49.1002 94.9247 48.8562 94.9247 48.5553V38.903C94.9247 38.6021 94.6807 38.3581 94.3797 38.3581Z" fill="url(#paint7_linear_30_98)"/>
<path d="M74.7615 33.9489C78.8793 33.9489 82.2174 30.6108 82.2174 26.493C82.2174 22.3752 78.8793 19.0371 74.7615 19.0371C70.6437 19.0371 67.3056 22.3752 67.3056 26.493C67.3056 30.6108 70.6437 33.9489 74.7615 33.9489Z" fill="#CE9432"/>
<path d="M74.7615 32.892C78.2956 32.892 81.1605 30.0271 81.1605 26.493C81.1605 22.9589 78.2956 20.094 74.7615 20.094C71.2274 20.094 68.3624 22.9589 68.3624 26.493C68.3624 30.0271 71.2274 32.892 74.7615 32.892Z" fill="url(#paint8_linear_30_98)"/>
<g opacity="0.51">
<mask id="mask0_30_98" style="mask-type:luminance" maskUnits="userSpaceOnUse" x="68" y="20" width="14" height="13">
<path d="M74.7615 32.892C78.2956 32.892 81.1605 30.0271 81.1605 26.493C81.1605 22.9589 78.2956 20.094 74.7615 20.094C71.2274 20.094 68.3624 22.9589 68.3624 26.493C68.3624 30.0271 71.2274 32.892 74.7615 32.892Z" fill="white"/>
</mask>
<g mask="url(#mask0_30_98)">
<path d="M80.3183 21.4398L68.2386 32.1242L66.323 28.0288L78.4027 17.3444L80.3183 21.4398Z" fill="white"/>
<path d="M83.0183 24.6022L70.9386 35.2865L69.7496 32.7434L81.8293 22.0591L83.0183 24.6022Z" fill="white"/>
</g>
</g>
<path d="M55.0524 20.3004V27.4838L75.0092 9.69863L94.2476 29.9857V23.8343L74.745 4.49683L55.0524 20.3004Z" fill="white"/>
<path d="M49.0085 24.404L73.4982 0.814268C74.2661 0.0794105 75.4881 0.0959242 76.223 0.863809L100.209 25.7747C101.365 26.9719 100.564 28.9701 98.8962 29.0361C98.343 29.0609 97.8146 28.8462 97.4348 28.4499L76.1156 6.37937C75.3725 5.61149 74.1588 5.59497 73.3909 6.32983L51.7993 27.1701C51.4442 27.5086 50.9736 27.7068 50.4864 27.7068H50.3626C48.6204 27.7315 47.7452 25.6095 49.0002 24.3958L49.0085 24.404Z" fill="url(#paint9_linear_30_98)"/>
<path d="M24.7581 84.489V52.8653L42.3947 34.6755L108.012 57.6047V85.2816L24.7581 84.489Z" fill="url(#paint10_linear_30_98)"/>
<path d="M40.4956 85.4468V52.7167L49.1571 47.4406L57.9671 52.7167V85.4468H40.4956Z" fill="url(#paint11_linear_30_98)"/>
<path d="M42.0727 84.5963V54.1782L49.1653 49.8351L56.39 54.1782V84.5963H42.0727Z" fill="url(#paint12_linear_30_98)"/>
<path d="M43.08 84.7284V54.8387L49.1653 51.2635L55.3827 54.9213V84.7284H43.08Z" fill="#FFF3DB"/>
<path d="M53.8965 68.2891H52.6662V71.4102H53.8965V68.2891Z" fill="#CE9432"/>
<path d="M79.3688 71.9221V56.424H65.8358V71.9221H79.3688Z" fill="#CE9432"/>
<path d="M78.3615 70.8652V57.4809H66.8514V70.8652H78.3615Z" fill="url(#paint13_linear_30_98)"/>
<path d="M64.6138 71.9138V73.6973H80.5991V71.9138H64.6138Z" fill="#CE9432"/>
<g opacity="0.48">
<mask id="mask1_30_98" style="mask-type:luminance" maskUnits="userSpaceOnUse" x="66" y="57" width="13" height="14">
<path d="M78.3615 70.8652V57.4809H66.8514V70.8652H78.3615Z" fill="white"/>
</mask>
<g mask="url(#mask1_30_98)">
<path d="M81.2548 51.4463L59.1952 65.641L62.6981 71.0847L84.7577 56.89L81.2548 51.4463Z" fill="white"/>
<path d="M87.5161 57.7111L65.4565 71.9058L67.6324 75.2873L89.692 61.0926L87.5161 57.7111Z" fill="white"/>
</g>
</g>
<path d="M72.1606 70.9313H73.0523V57.3983H72.1606V70.9313Z" fill="#CE9432"/>
<path d="M65.8441 63.7231V64.6148H79.3771V63.7231H65.8441Z" fill="#CE9432"/>
<path d="M24.7581 52.8571V58.8598C31.6443 52.791 45.9617 39.9269 45.9617 39.9269L108.012 63.1038V57.5965L42.3947 34.6673L24.7581 52.8571Z" fill="white"/>
<path d="M109.424 60.0157L47.4892 36.3021C46.5397 35.9388 45.458 36.17 44.7397 36.8884L22.7104 56.2424C21.7031 57.2497 20.0683 57.2497 19.0609 56.2424C18.0536 55.235 18.0536 53.6002 19.0609 52.5929L43.4599 30.8691C44.1782 30.1508 45.2598 29.9196 46.2094 30.2829L111.273 55.1855C112.603 55.6974 113.271 57.1837 112.759 58.5213C112.248 59.8506 110.761 60.5194 109.424 60.0075V60.0157Z" fill="url(#paint14_linear_30_98)"/>
<path d="M68.7422 84.9514C69.2707 82.7881 71.6486 81.3927 73.6138 82.1028C74.233 81.2771 74.8688 80.4266 75.711 79.8734C76.5532 79.3202 77.6514 79.1055 78.5266 79.6009C78.8321 79.7743 79.0963 80.0303 79.4266 80.1459C79.7156 80.2532 80.0376 80.245 80.3348 80.2945C82.1266 80.6165 82.8614 82.9284 83.2495 84.8605" fill="url(#paint15_linear_30_98)"/>
<path d="M118.316 84.7615C118.589 83.4569 118.184 82.0037 117.284 81.0872C116.384 80.1624 115.03 79.7991 113.841 80.1624C113.602 80.2367 113.354 80.3358 113.106 80.3028C112.652 80.2367 112.371 79.7413 112.132 79.3202C111.116 77.5533 109.49 76.0918 107.582 75.8276C105.675 75.5634 103.561 76.7523 103.025 78.7505C101.274 77.5037 98.5659 78.4698 97.8311 80.5918C95.3623 80.0468 92.6623 82.078 92.2742 84.778" fill="url(#paint16_linear_30_98)"/>
<path d="M96.7742 84.7367C96.0476 82.3422 93.1495 81.0542 91.0852 82.2184C90.5403 81.0789 89.7311 80.0138 88.633 79.5514C87.5266 79.089 86.0981 79.3945 85.4789 80.4844C85.3715 80.6661 85.289 80.8808 85.1321 81.0129C84.8679 81.2358 84.4963 81.178 84.1578 81.178C82.366 81.1945 81.1771 83.1266 80.3266 84.8358" fill="url(#paint17_linear_30_98)"/>
<path d="M6.39493 85.4138H0.994959C0.813309 85.4138 0.672943 85.2734 0.672943 85.0918C0.672943 84.9101 0.813309 84.7697 0.994959 84.7697H6.39493C6.57658 84.7697 6.71694 84.9101 6.71694 85.0918C6.71694 85.2734 6.57658 85.4138 6.39493 85.4138Z" fill="#F1BA5B"/>
<path d="M118.63 85.4138H115.699C115.517 85.4138 115.377 85.2734 115.377 85.0918C115.377 84.9101 115.517 84.7697 115.699 84.7697H118.63C118.812 84.7697 118.952 84.9101 118.952 85.0918C118.952 85.2734 118.812 85.4138 118.63 85.4138Z" fill="#F1BA5B"/>
<path d="M113.164 85.4138H13.083C12.9096 85.4138 12.7775 85.2817 12.7775 85.1083C12.7775 84.9349 12.9096 84.8028 13.083 84.8028H113.164C113.337 84.8028 113.47 84.9349 113.47 85.1083C113.47 85.2817 113.337 85.4138 113.164 85.4138Z" fill="#F1BA5B"/>
<path d="M8.17017 85.2074H11.2004V37.1774H8.17017V85.2074Z" fill="url(#paint18_linear_30_98)"/>
<path d="M7.2041 41.1572H42.8901V39.0104H7.2041V41.1572Z" fill="url(#paint19_linear_30_98)"/>
<path d="M32.0571 40.6205L30.026 42.6516L30.4553 43.081L32.4865 41.0498L32.0571 40.6205Z" fill="#F1BA5B"/>
<path d="M21.3068 40.6205L20.8857 41.0416L22.9086 43.0645L23.3297 42.6434L21.3068 40.6205Z" fill="#F1BA5B"/>
<path d="M14.6105 56.2589H37.8369C38.6709 56.2589 39.3479 55.5818 39.3479 54.7396V44.1461C39.3479 43.3122 38.6709 42.6269 37.8369 42.6269H14.6105C13.7765 42.6269 13.0995 43.3039 13.0995 44.1461V54.7396C13.0995 55.5736 13.7765 56.2589 14.6105 56.2589Z" fill="#F1BA5B"/>
<path d="M36.3507 45.7892H16.2536V47.9443H36.3507V45.7892Z" fill="white"/>
<path d="M34.914 50.0993H17.6903V51.536H34.914V50.0993Z" fill="white"/>
<path d="M9.5738 40.5049C9.78022 40.5049 9.94535 40.3397 9.94535 40.1333C9.94535 39.9269 9.78022 39.7617 9.5738 39.7617C9.36738 39.7617 9.20224 39.9269 9.20224 40.1333C9.20224 40.3397 9.36738 40.5049 9.5738 40.5049Z" fill="#F1BA5B"/>
<path d="M14.4371 43.9397C14.6435 43.9397 14.8086 43.7746 14.8086 43.5682C14.8086 43.3617 14.6435 43.1966 14.4371 43.1966C14.2307 43.1966 14.0655 43.3617 14.0655 43.5682C14.0655 43.7746 14.2307 43.9397 14.4371 43.9397Z" fill="white"/>
</g>
<defs>
<linearGradient id="paint0_linear_30_98" x1="55.0524" y1="33.371" x2="94.2476" y2="33.371" gradientUnits="userSpaceOnUse">
<stop stop-color="white"/>
<stop offset="1" stop-color="#F2BA59"/>
</linearGradient>
<linearGradient id="paint1_linear_30_98" x1="60.568" y1="39.0021" x2="97.9962" y2="39.0021" gradientUnits="userSpaceOnUse">
<stop stop-color="#F2BA59"/>
<stop offset="1" stop-color="white"/>
</linearGradient>
<linearGradient id="paint2_linear_30_98" x1="71.7147" y1="43.725" x2="73.0771" y2="43.725" gradientUnits="userSpaceOnUse">
<stop stop-color="#F2BA59"/>
<stop offset="1" stop-color="white"/>
</linearGradient>
<linearGradient id="paint3_linear_30_98" x1="76.0908" y1="43.725" x2="77.4449" y2="43.725" gradientUnits="userSpaceOnUse">
<stop stop-color="#F2BA59"/>
<stop offset="1" stop-color="white"/>
</linearGradient>
<linearGradient id="paint4_linear_30_98" x1="80.3101" y1="43.725" x2="81.6642" y2="43.725" gradientUnits="userSpaceOnUse">
<stop stop-color="#F2BA59"/>
<stop offset="1" stop-color="white"/>
</linearGradient>
<linearGradient id="paint5_linear_30_98" x1="84.6779" y1="43.725" x2="86.0403" y2="43.725" gradientUnits="userSpaceOnUse">
<stop stop-color="#F2BA59"/>
<stop offset="1" stop-color="white"/>
</linearGradient>
<linearGradient id="paint6_linear_30_98" x1="89.2027" y1="43.725" x2="90.5568" y2="43.725" gradientUnits="userSpaceOnUse">
<stop stop-color="#F2BA59"/>
<stop offset="1" stop-color="white"/>
</linearGradient>
<linearGradient id="paint7_linear_30_98" x1="93.5706" y1="43.725" x2="94.9329" y2="43.725" gradientUnits="userSpaceOnUse">
<stop stop-color="#F2BA59"/>
<stop offset="1" stop-color="white"/>
</linearGradient>
<linearGradient id="paint8_linear_30_98" x1="68.3542" y1="26.493" x2="81.1605" y2="26.493" gradientUnits="userSpaceOnUse">
<stop stop-color="white"/>
<stop offset="1" stop-color="#F2BA59"/>
</linearGradient>
<linearGradient id="paint9_linear_30_98" x1="48.414" y1="14.661" x2="100.754" y2="14.661" gradientUnits="userSpaceOnUse">
<stop stop-color="white"/>
<stop offset="1" stop-color="#F2BA59"/>
</linearGradient>
<linearGradient id="paint10_linear_30_98" x1="24.7581" y1="59.9744" x2="108.012" y2="59.9744" gradientUnits="userSpaceOnUse">
<stop stop-color="white"/>
<stop offset="1" stop-color="#F2BA59"/>
</linearGradient>
<linearGradient id="paint11_linear_30_98" x1="40.4956" y1="66.4396" x2="57.9671" y2="66.4396" gradientUnits="userSpaceOnUse">
<stop stop-color="#F2BA59"/>
<stop offset="1" stop-color="white"/>
</linearGradient>
<linearGradient id="paint12_linear_30_98" x1="42.0727" y1="67.2157" x2="56.39" y2="67.2157" gradientUnits="userSpaceOnUse">
<stop stop-color="white" stop-opacity="0"/>
<stop offset="1" stop-color="white"/>
</linearGradient>
<linearGradient id="paint13_linear_30_98" x1="66.8514" y1="64.1689" x2="78.3615" y2="64.1689" gradientUnits="userSpaceOnUse">
<stop stop-color="white"/>
<stop offset="1" stop-color="#F2BA59"/>
</linearGradient>
<linearGradient id="paint14_linear_30_98" x1="18.3013" y1="45.1534" x2="112.925" y2="45.1534" gradientUnits="userSpaceOnUse">
<stop stop-color="white"/>
<stop offset="1" stop-color="#F2BA59"/>
</linearGradient>
<linearGradient id="paint15_linear_30_98" x1="68.7422" y1="82.1358" x2="83.2495" y2="82.1358" gradientUnits="userSpaceOnUse">
<stop stop-color="white"/>
<stop offset="1" stop-color="#F2BA59"/>
</linearGradient>
<linearGradient id="paint16_linear_30_98" x1="92.2825" y1="80.2697" x2="118.399" y2="80.2697" gradientUnits="userSpaceOnUse">
<stop stop-color="white"/>
<stop offset="1" stop-color="#F2BA59"/>
</linearGradient>
<linearGradient id="paint17_linear_30_98" x1="80.3183" y1="82.0863" x2="96.7742" y2="82.0863" gradientUnits="userSpaceOnUse">
<stop stop-color="white"/>
<stop offset="1" stop-color="#F2BA59"/>
</linearGradient>
<linearGradient id="paint18_linear_30_98" x1="8.17017" y1="61.1965" x2="11.2004" y2="61.1965" gradientUnits="userSpaceOnUse">
<stop stop-color="white"/>
<stop offset="1" stop-color="#F2BA59"/>
</linearGradient>
<linearGradient id="paint19_linear_30_98" x1="25.0471" y1="41.1572" x2="25.0471" y2="39.0104" gradientUnits="userSpaceOnUse">
<stop stop-color="#F2BA59"/>
<stop offset="1" stop-color="white"/>
</linearGradient>
<clipPath id="clip0_30_98">
<rect width="118.279" height="85.1692" fill="white" transform="translate(0.672943 0.277588)"/>
</clipPath>
</defs>
</svg>